<svg width="32" height="32" viewBox="0 0 32 32" fill="none" xmlns="http://www.w3.org/2000/svg">
  <style>
    .dark { display: none; }
    @media (prefers-color-scheme: dark) {
      .light { display: none; }
      .dark { display: block; }
    }
  </style>
  <g class="light">
    <circle cx="16" cy="16" r="15" stroke="#0ea5e9" stroke-width="2" fill="none"/>
    <path d="M10 12C10 9 12 8 16 8C20 8 22 9 22 12C22 15 20 16 16 16C12 16 10 17 10 20C10 23 12 24 16 24C20 24 22 23 22 20" stroke="#0c4a6e" stroke-width="2" stroke-linecap="round" fill="none"/>
  </g>
  <g class="dark">
    <circle cx="16" cy="16" r="15" stroke="#38bdf8" stroke-width="2" fill="none"/>
    <path d="M10 12C10 9 12 8 16 8C20 8 22 9 22 12C22 15 20 16 16 16C12 16 10 17 10 20C10 23 12 24 16 24C20 24 22 23 22 20" stroke="#7dd3fc" stroke-width="2" stroke-linecap="round" fill="none"/>
  </g>
</svg>